<svg width="140" height="48" viewBox="0 0 140 48" fill="none" xmlns="http://www.w3.org/2000/svg">
<path fill-rule="evenodd" clip-rule="evenodd" d="M31.5 21.2255V32.9503C31.5 36.2914 28.8137 39 25.5 39H10.5C7.18629 39 4.5 36.2914 4.5 32.9503V21.2255C4.5 19.4091 5.30947 17.6887 6.70479 16.5398L14.2048 10.364C16.4135 8.54533 19.5865 8.54532 21.7952 10.364L29.2952 16.5398C30.6905 17.6887 31.5 19.4091 31.5 21.2255ZM10.5 23C10.5 21.8954 11.3954 21 12.5 21H23.5C24.6046 21 25.5 21.8954 25.5 23V31C25.5 32.1046 24.6046 33 23.5 33H12.5C11.3954 33 10.5 32.1046 10.5 31V23ZM13.9938 24.9968C14.2717 24.441 14.9475 24.2158 15.5032 24.4936L17.1615 25.3228C17.6894 25.5868 18.3107 25.5868 18.8386 25.3228L20.4969 24.4936C21.0527 24.2158 21.7284 24.441 22.0063 24.9968C22.2842 25.5525 22.0589 26.2282 21.5032 26.5061L19.8448 27.3353C18.6835 27.9159 17.3166 27.9159 16.1553 27.3353L14.4969 26.5061C13.9412 26.2282 13.716 25.5525 13.9938 24.9968Z" fill="#F01543"/>
<path d="M41.728 34V16.12H48.376C49.592 16.12 50.664 16.344 51.592 16.792C52.536 17.224 53.272 17.864 53.8 18.712C54.328 19.544 54.592 20.56 54.592 21.76C54.592 22.992 54.296 24.04 53.704 24.904C53.128 25.768 52.344 26.408 51.352 26.824L55.456 34H51.76L47.368 26.152L49.48 27.4H44.992V34H41.728ZM44.992 24.52H48.424C49.016 24.52 49.528 24.408 49.96 24.184C50.392 23.944 50.728 23.616 50.968 23.2C51.208 22.784 51.328 22.304 51.328 21.76C51.328 21.2 51.208 20.72 50.968 20.32C50.728 19.904 50.392 19.584 49.96 19.36C49.528 19.12 49.016 19 48.424 19H44.992V24.52ZM62.5566 34.288C61.2126 34.288 60.0366 33.984 59.0286 33.376C58.0206 32.768 57.2366 31.944 56.6766 30.904C56.1166 29.864 55.8366 28.712 55.8366 27.448C55.8366 26.136 56.1166 24.976 56.6766 23.968C57.2526 22.944 58.0286 22.136 59.0046 21.544C59.9966 20.952 61.1006 20.656 62.3166 20.656C63.3406 20.656 64.2366 20.824 65.0046 21.16C65.7886 21.496 66.4526 21.96 66.9966 22.552C67.5406 23.144 67.9566 23.824 68.2446 24.592C68.5326 25.344 68.6766 26.16 68.6766 27.04C68.6766 27.264 68.6606 27.496 68.6286 27.736C68.6126 27.976 68.5726 28.184 68.5086 28.36H58.4286V25.96H66.7326L65.2446 27.088C65.3886 26.352 65.3486 25.696 65.1246 25.12C64.9166 24.544 64.5646 24.088 64.0686 23.752C63.5886 23.416 63.0046 23.248 62.3166 23.248C61.6606 23.248 61.0766 23.416 60.5646 23.752C60.0526 24.072 59.6606 24.552 59.3886 25.192C59.1326 25.816 59.0366 26.576 59.1006 27.472C59.0366 28.272 59.1406 28.984 59.4126 29.608C59.7006 30.216 60.1166 30.688 60.6606 31.024C61.2206 31.36 61.8606 31.528 62.5806 31.528C63.3006 31.528 63.9086 31.376 64.4046 31.072C64.9166 30.768 65.3166 30.36 65.6046 29.848L68.1486 31.096C67.8926 31.72 67.4926 32.272 66.9486 32.752C66.4046 33.232 65.7566 33.608 65.0046 33.88C64.2686 34.152 63.4526 34.288 62.5566 34.288ZM75.7879 34.288C74.3959 34.288 73.1799 33.96 72.1399 33.304C71.1159 32.632 70.4119 31.728 70.0279 30.592L72.3799 29.464C72.7159 30.2 73.1799 30.776 73.7719 31.192C74.3799 31.608 75.0519 31.816 75.7879 31.816C76.3639 31.816 76.8199 31.688 77.1559 31.432C77.4919 31.176 77.6599 30.84 77.6599 30.424C77.6599 30.168 77.5879 29.96 77.4439 29.8C77.3159 29.624 77.1319 29.48 76.8919 29.368C76.6679 29.24 76.4199 29.136 76.1479 29.056L74.0119 28.456C72.9079 28.136 72.0679 27.648 71.4919 26.992C70.9319 26.336 70.6519 25.56 70.6519 24.664C70.6519 23.864 70.8519 23.168 71.2519 22.576C71.6679 21.968 72.2359 21.496 72.9559 21.16C73.6919 20.824 74.5319 20.656 75.4759 20.656C76.7079 20.656 77.7959 20.952 78.7399 21.544C79.6839 22.136 80.3559 22.968 80.7559 24.04L78.3559 25.168C78.1319 24.576 77.7559 24.104 77.2279 23.752C76.6999 23.4 76.1079 23.224 75.4519 23.224C74.9239 23.224 74.5079 23.344 74.2039 23.584C73.8999 23.824 73.7479 24.136 73.7479 24.52C73.7479 24.76 73.8119 24.968 73.9399 25.144C74.0679 25.32 74.2439 25.464 74.4679 25.576C74.7079 25.688 74.9799 25.792 75.2839 25.888L77.3719 26.512C78.4439 26.832 79.2679 27.312 79.8439 27.952C80.4359 28.592 80.7319 29.376 80.7319 30.304C80.7319 31.088 80.5239 31.784 80.1079 32.392C79.6919 32.984 79.1159 33.448 78.3799 33.784C77.6439 34.12 76.7799 34.288 75.7879 34.288ZM89.1001 34.288C87.7561 34.288 86.5801 33.984 85.5721 33.376C84.5641 32.768 83.7801 31.944 83.2201 30.904C82.6601 29.864 82.3801 28.712 82.3801 27.448C82.3801 26.136 82.6601 24.976 83.2201 23.968C83.7961 22.944 84.5721 22.136 85.5481 21.544C86.5401 20.952 87.6441 20.656 88.8601 20.656C89.8841 20.656 90.7801 20.824 91.5481 21.16C92.3321 21.496 92.9961 21.96 93.5401 22.552C94.0841 23.144 94.5001 23.824 94.7881 24.592C95.0761 25.344 95.2201 26.16 95.2201 27.04C95.2201 27.264 95.2041 27.496 95.1721 27.736C95.1561 27.976 95.1161 28.184 95.0521 28.36H84.9721V25.96H93.2761L91.7881 27.088C91.9321 26.352 91.8921 25.696 91.6681 25.12C91.4601 24.544 91.1081 24.088 90.6121 23.752C90.1321 23.416 89.5481 23.248 88.8601 23.248C88.2041 23.248 87.6201 23.416 87.1081 23.752C86.5961 24.072 86.2041 24.552 85.9321 25.192C85.6761 25.816 85.5801 26.576 85.6441 27.472C85.5801 28.272 85.6841 28.984 85.9561 29.608C86.2441 30.216 86.6601 30.688 87.2041 31.024C87.7641 31.36 88.4041 31.528 89.1241 31.528C89.8441 31.528 90.4521 31.376 90.9481 31.072C91.4601 30.768 91.8601 30.36 92.1481 29.848L94.6921 31.096C94.4361 31.72 94.0361 32.272 93.4921 32.752C92.9481 33.232 92.3001 33.608 91.5481 33.88C90.8121 34.152 89.9961 34.288 89.1001 34.288ZM97.3634 34V20.944H100.315V23.848L100.075 23.416C100.379 22.44 100.851 21.76 101.491 21.376C102.147 20.992 102.931 20.8 103.843 20.8H104.611V23.584H103.483C102.587 23.584 101.867 23.864 101.323 24.424C100.779 24.968 100.507 25.736 100.507 26.728V34H97.3634ZM110.036 34L104.9 20.944H108.332L112.052 31.216H110.78L114.524 20.944H117.956L112.82 34H110.036ZM128.526 34.288C127.214 34.288 125.99 34.056 124.854 33.592C123.718 33.128 122.726 32.48 121.878 31.648C121.03 30.816 120.366 29.84 119.886 28.72C119.422 27.584 119.19 26.36 119.19 25.048C119.19 23.72 119.422 22.496 119.886 21.376C120.35 20.256 121.006 19.28 121.854 18.448C122.702 17.616 123.694 16.976 124.83 16.528C125.966 16.064 127.198 15.832 128.526 15.832C129.854 15.832 131.086 16.064 132.222 16.528C133.358 16.992 134.35 17.64 135.198 18.472C136.046 19.288 136.702 20.256 137.166 21.376C137.646 22.496 137.886 23.72 137.886 25.048C137.886 26.36 137.646 27.584 137.166 28.72C136.686 29.84 136.022 30.816 135.174 31.648C134.326 32.48 133.334 33.128 132.198 33.592C131.078 34.056 129.854 34.288 128.526 34.288ZM128.526 31.312C129.406 31.312 130.214 31.16 130.95 30.856C131.686 30.536 132.326 30.096 132.87 29.536C133.43 28.976 133.854 28.312 134.142 27.544C134.446 26.776 134.598 25.944 134.598 25.048C134.598 24.152 134.446 23.328 134.142 22.576C133.854 21.808 133.43 21.144 132.87 20.584C132.326 20.008 131.686 19.568 130.95 19.264C130.214 18.96 129.406 18.808 128.526 18.808C127.662 18.808 126.862 18.96 126.126 19.264C125.39 19.568 124.742 20.008 124.182 20.584C123.638 21.144 123.214 21.808 122.91 22.576C122.606 23.328 122.454 24.152 122.454 25.048C122.454 25.944 122.606 26.776 122.91 27.544C123.214 28.312 123.638 28.976 124.182 29.536C124.742 30.096 125.39 30.536 126.126 30.856C126.862 31.16 127.662 31.312 128.526 31.312ZM132.654 36.16L127.086 26.848H130.494L136.134 36.16H132.654Z" fill="white"/>
</svg>
