<svg width="134" height="48" viewBox="0 0 134 48" fill="none" xmlns="http://www.w3.org/2000/svg">
<path fill-rule="evenodd" clip-rule="evenodd" d="M31.5 21.2255V32.9503C31.5 36.2914 28.8137 39 25.5 39H10.5C7.18629 39 4.5 36.2914 4.5 32.9503V21.2255C4.5 19.4091 5.30947 17.6887 6.70479 16.5398L14.2048 10.364C16.4135 8.54533 19.5865 8.54532 21.7952 10.364L29.2952 16.5398C30.6905 17.6887 31.5 19.4091 31.5 21.2255ZM10.5 23C10.5 21.8954 11.3954 21 12.5 21H23.5C24.6046 21 25.5 21.8954 25.5 23V31C25.5 32.1046 24.6046 33 23.5 33H12.5C11.3954 33 10.5 32.1046 10.5 31V23ZM13.9938 24.9968C14.2717 24.441 14.9475 24.2158 15.5032 24.4936L17.1615 25.3228C17.6894 25.5868 18.3107 25.5868 18.8386 25.3228L20.4969 24.4936C21.0527 24.2158 21.7284 24.441 22.0063 24.9968C22.2842 25.5525 22.0589 26.2282 21.5032 26.5061L19.8448 27.3353C18.6835 27.9159 17.3166 27.9159 16.1553 27.3353L14.4969 26.5061C13.9412 26.2282 13.716 25.5525 13.9938 24.9968Z" fill="#F01543"/>
<path d="M37.728 34V16.12H44.376C45.592 16.12 46.664 16.344 47.592 16.792C48.536 17.224 49.272 17.864 49.8 18.712C50.328 19.544 50.592 20.56 50.592 21.76C50.592 22.992 50.296 24.04 49.704 24.904C49.128 25.768 48.344 26.408 47.352 26.824L51.456 34H47.76L43.368 26.152L45.48 27.4H40.992V34H37.728ZM40.992 24.52H44.424C45.016 24.52 45.528 24.408 45.96 24.184C46.392 23.944 46.728 23.616 46.968 23.2C47.208 22.784 47.328 22.304 47.328 21.76C47.328 21.2 47.208 20.72 46.968 20.32C46.728 19.904 46.392 19.584 45.96 19.36C45.528 19.12 45.016 19 44.424 19H40.992V24.52ZM58.3166 34.288C56.9726 34.288 55.7966 33.984 54.7886 33.376C53.7806 32.768 52.9966 31.944 52.4366 30.904C51.8766 29.864 51.5966 28.712 51.5966 27.448C51.5966 26.136 51.8766 24.976 52.4366 23.968C53.0126 22.944 53.7886 22.136 54.7646 21.544C55.7566 20.952 56.8606 20.656 58.0766 20.656C59.1006 20.656 59.9966 20.824 60.7646 21.16C61.5486 21.496 62.2126 21.96 62.7566 22.552C63.3006 23.144 63.7166 23.824 64.0046 24.592C64.2926 25.344 64.4366 26.16 64.4366 27.04C64.4366 27.264 64.4206 27.496 64.3886 27.736C64.3726 27.976 64.3326 28.184 64.2686 28.36H54.1886V25.96H62.4926L61.0046 27.088C61.1486 26.352 61.1086 25.696 60.8846 25.12C60.6766 24.544 60.3246 24.088 59.8286 23.752C59.3486 23.416 58.7646 23.248 58.0766 23.248C57.4206 23.248 56.8366 23.416 56.3246 23.752C55.8126 24.072 55.4206 24.552 55.1486 25.192C54.8926 25.816 54.7966 26.576 54.8606 27.472C54.7966 28.272 54.9006 28.984 55.1726 29.608C55.4606 30.216 55.8766 30.688 56.4206 31.024C56.9806 31.36 57.6206 31.528 58.3406 31.528C59.0606 31.528 59.6686 31.376 60.1646 31.072C60.6766 30.768 61.0766 30.36 61.3646 29.848L63.9086 31.096C63.6526 31.72 63.2526 32.272 62.7086 32.752C62.1646 33.232 61.5166 33.608 60.7646 33.88C60.0286 34.152 59.2126 34.288 58.3166 34.288ZM71.3079 34.288C69.9159 34.288 68.6999 33.96 67.6599 33.304C66.6359 32.632 65.9319 31.728 65.5479 30.592L67.8999 29.464C68.2359 30.2 68.6999 30.776 69.2919 31.192C69.8999 31.608 70.5719 31.816 71.3079 31.816C71.8839 31.816 72.3399 31.688 72.6759 31.432C73.0119 31.176 73.1799 30.84 73.1799 30.424C73.1799 30.168 73.1079 29.96 72.9639 29.8C72.8359 29.624 72.6519 29.48 72.4119 29.368C72.1879 29.24 71.9399 29.136 71.6679 29.056L69.5319 28.456C68.4279 28.136 67.5879 27.648 67.0119 26.992C66.4519 26.336 66.1719 25.56 66.1719 24.664C66.1719 23.864 66.3719 23.168 66.7719 22.576C67.1879 21.968 67.7559 21.496 68.4759 21.16C69.2119 20.824 70.0519 20.656 70.9959 20.656C72.2279 20.656 73.3159 20.952 74.2599 21.544C75.2039 22.136 75.8759 22.968 76.2759 24.04L73.8759 25.168C73.6519 24.576 73.2759 24.104 72.7479 23.752C72.2199 23.4 71.6279 23.224 70.9719 23.224C70.4439 23.224 70.0279 23.344 69.7239 23.584C69.4199 23.824 69.2679 24.136 69.2679 24.52C69.2679 24.76 69.3319 24.968 69.4599 25.144C69.5879 25.32 69.7639 25.464 69.9879 25.576C70.2279 25.688 70.4999 25.792 70.8039 25.888L72.8919 26.512C73.9639 26.832 74.7879 27.312 75.3639 27.952C75.9559 28.592 76.2519 29.376 76.2519 30.304C76.2519 31.088 76.0439 31.784 75.6279 32.392C75.2119 32.984 74.6359 33.448 73.8999 33.784C73.1639 34.12 72.2999 34.288 71.3079 34.288ZM84.3801 34.288C83.0361 34.288 81.8601 33.984 80.8521 33.376C79.8441 32.768 79.0601 31.944 78.5001 30.904C77.9401 29.864 77.6601 28.712 77.6601 27.448C77.6601 26.136 77.9401 24.976 78.5001 23.968C79.0761 22.944 79.8521 22.136 80.8281 21.544C81.8201 20.952 82.9241 20.656 84.1401 20.656C85.1641 20.656 86.0601 20.824 86.8281 21.16C87.6121 21.496 88.2761 21.96 88.8201 22.552C89.3641 23.144 89.7801 23.824 90.0681 24.592C90.3561 25.344 90.5001 26.16 90.5001 27.04C90.5001 27.264 90.4841 27.496 90.4521 27.736C90.4361 27.976 90.3961 28.184 90.3321 28.36H80.2521V25.96H88.5561L87.0681 27.088C87.2121 26.352 87.1721 25.696 86.9481 25.12C86.7401 24.544 86.3881 24.088 85.8921 23.752C85.4121 23.416 84.8281 23.248 84.1401 23.248C83.4841 23.248 82.9001 23.416 82.3881 23.752C81.8761 24.072 81.4841 24.552 81.2121 25.192C80.9561 25.816 80.8601 26.576 80.9241 27.472C80.8601 28.272 80.9641 28.984 81.2361 29.608C81.5241 30.216 81.9401 30.688 82.4841 31.024C83.0441 31.36 83.6841 31.528 84.4041 31.528C85.1241 31.528 85.7321 31.376 86.2281 31.072C86.7401 30.768 87.1401 30.36 87.4281 29.848L89.9721 31.096C89.7161 31.72 89.3161 32.272 88.7721 32.752C88.2281 33.232 87.5801 33.608 86.8281 33.88C86.0921 34.152 85.2761 34.288 84.3801 34.288ZM92.4034 34V20.944H95.3554V23.848L95.1154 23.416C95.4194 22.44 95.8914 21.76 96.5314 21.376C97.1874 20.992 97.9714 20.8 98.8834 20.8H99.6514V23.584H98.5234C97.6274 23.584 96.9074 23.864 96.3634 24.424C95.8194 24.968 95.5474 25.736 95.5474 26.728V34H92.4034ZM104.836 34L99.6999 20.944H103.132L106.852 31.216H105.58L109.324 20.944H112.756L107.62 34H104.836ZM123.086 34.288C121.774 34.288 120.55 34.056 119.414 33.592C118.278 33.128 117.286 32.48 116.438 31.648C115.59 30.816 114.926 29.84 114.446 28.72C113.982 27.584 113.75 26.36 113.75 25.048C113.75 23.72 113.982 22.496 114.446 21.376C114.91 20.256 115.566 19.28 116.414 18.448C117.262 17.616 118.254 16.976 119.39 16.528C120.526 16.064 121.758 15.832 123.086 15.832C124.414 15.832 125.646 16.064 126.782 16.528C127.918 16.992 128.91 17.64 129.758 18.472C130.606 19.288 131.262 20.256 131.726 21.376C132.206 22.496 132.446 23.72 132.446 25.048C132.446 26.36 132.206 27.584 131.726 28.72C131.246 29.84 130.582 30.816 129.734 31.648C128.886 32.48 127.894 33.128 126.758 33.592C125.638 34.056 124.414 34.288 123.086 34.288ZM123.086 31.312C123.966 31.312 124.774 31.16 125.51 30.856C126.246 30.536 126.886 30.096 127.43 29.536C127.99 28.976 128.414 28.312 128.702 27.544C129.006 26.776 129.158 25.944 129.158 25.048C129.158 24.152 129.006 23.328 128.702 22.576C128.414 21.808 127.99 21.144 127.43 20.584C126.886 20.008 126.246 19.568 125.51 19.264C124.774 18.96 123.966 18.808 123.086 18.808C122.222 18.808 121.422 18.96 120.686 19.264C119.95 19.568 119.302 20.008 118.742 20.584C118.198 21.144 117.774 21.808 117.47 22.576C117.166 23.328 117.014 24.152 117.014 25.048C117.014 25.944 117.166 26.776 117.47 27.544C117.774 28.312 118.198 28.976 118.742 29.536C119.302 30.096 119.95 30.536 120.686 30.856C121.422 31.16 122.222 31.312 123.086 31.312ZM127.214 36.16L121.646 26.848H125.054L130.694 36.16H127.214Z" fill="#000929"/>
</svg>
