<?xml version="1.0" encoding="utf-8"?>
<!-- Generator: Adobe Illustrator 27.9.0, SVG Export Plug-In . SVG Version: 6.00 Build 0)  -->
<svg version="1.1" id="Layer_1" xmlns="http://www.w3.org/2000/svg" xmlns:xlink="http://www.w3.org/1999/xlink" x="0px" y="0px"
	 viewBox="0 0 157.9 46.3" style="enable-background:new 0 0 157.9 46.3;" xml:space="preserve">
<style type="text/css">
	.st0{fill:#848484;}
	.st1{clip-path:url(#SVGID_00000029024242971870676530000011503747079151159962_);}
	.st2{fill:#AEAEAE;}
</style>
<g id="Group_481" transform="translate(0 13.575)">
	<path id="Path_981" class="st0" d="M62.1,23.3h-5.7V2.1h5.7V23.3z M55.7-4.8c0-0.9,0.4-1.9,1-2.5c0.6-0.7,1.6-1.1,2.5-1.1
		c0.9,0,1.8,0.4,2.5,1c0.7,0.7,1.1,1.6,1,2.5c0,0.9-0.4,1.8-1,2.5c-0.7,0.7-1.6,1-2.5,1c-0.9,0-1.8-0.4-2.5-1
		C56.1-3,55.7-3.9,55.7-4.8z M73.9,17.1c1,1,2.4,1.6,3.8,1.6c1.4,0,2.8-0.6,3.8-1.6c1.1-1.2,1.7-2.8,1.6-4.4
		c0.1-1.6-0.5-3.2-1.6-4.4c-1-1-2.4-1.6-3.8-1.6c-1.4,0-2.8,0.6-3.8,1.6c-1.1,1.2-1.7,2.8-1.6,4.4C72.2,14.3,72.8,15.9,73.9,17.1z
		 M69.8,4.7c2.1-2.1,5-3.3,8-3.2c3-0.1,5.8,1.1,7.9,3.2c2.1,2.1,3.3,5,3.2,8c0.1,3-1,5.9-3.2,8c-2.1,2.1-5,3.3-7.9,3.2
		c-3,0.1-5.8-1.1-7.9-3.2c-2.1-2.1-3.3-5-3.2-8C66.5,9.7,67.7,6.8,69.8,4.7z M103.1-3.1c-0.7,0-1.5,0.2-2.1,0.7
		c-0.6,0.6-1,1.4-0.9,2.3v2.3h4.8V7h-4.8v16.3h-5.8V7h-3.5V2.1h3.5v-2.4c-0.1-2.1,0.7-4.2,2.1-5.7c1.5-1.5,3.5-2.3,5.6-2.2
		c1,0,1.9,0.1,2.8,0.4v4.8C104.4-3.1,103.7-3.1,103.1-3.1z M121.5,2v5.8c-0.6-0.1-1.1-0.2-1.7-0.2c-1.5-0.1-2.9,0.4-4,1.4
		c-1,0.9-1.5,2.5-1.5,4.6v9.7h-5.7V2.1h5.5v3.1c1-2.2,3-3.3,6-3.3C120.5,2,121,2,121.5,2L121.5,2z M131.3,23.3h-5.7V2.1h5.5v2.6
		c0.6-1,1.5-1.8,2.6-2.3c1.1-0.6,2.4-0.9,3.6-0.9c3.1,0,5.2,1.2,6.3,3.5c1.4-2.3,4-3.7,6.7-3.5c2-0.1,4,0.7,5.4,2
		c1.5,1.3,2.2,3.4,2.2,6v13.7h-5.5V10.7c0.1-1-0.3-2.1-0.9-2.9c-0.7-0.8-1.8-1.2-2.8-1.1c-1.1,0-2.1,0.4-2.8,1.2
		c-0.7,0.8-1.1,1.9-1.1,3v12.4H139V10.7c0.1-1-0.3-2.1-0.9-2.9c-0.7-0.8-1.7-1.2-2.8-1.1c-1.1,0-2.1,0.4-2.9,1.2
		c-0.7,0.8-1.1,1.9-1.1,3L131.3,23.3z"/>
	<g id="Group_479" transform="translate(0 -13.575)">
		<g id="Group_478">
			<g>
				<defs>
					<rect id="SVGID_1_" y="0" width="42.2" height="46.3"/>
				</defs>
				<clipPath id="SVGID_00000181048030190765571850000007820119381950805436_">
					<use xlink:href="#SVGID_1_"  style="overflow:visible;"/>
				</clipPath>
				<g id="Group_477" style="clip-path:url(#SVGID_00000181048030190765571850000007820119381950805436_);">
					<path id="Path_964" class="st2" d="M9.7,46.2c-2.9,0-5.4-2.1-5.8-5L0.2,14.9c-0.5-3.2,1.7-6.1,4.9-6.6c0,0,0,0,0,0l7.1-1
						l0.7,4.4l-7.1,1.1c-0.7,0.1-1.3,0.8-1.2,1.5c0,0,0,0,0,0l3.8,26.2c0.1,0.7,0.8,1.3,1.5,1.2l19.8-2.8c0.6-0.1,1-0.6,0.9-1.2
						c0,0,0,0,0,0L30.3,36l4.5-0.7l0.2,1.6c0.4,3.1-1.7,5.9-4.8,6.3l-19.8,2.9C10.2,46.1,10,46.2,9.7,46.2z"/>
				</g>
			</g>
		</g>
		<path id="Path_965" class="st0" d="M36.4,37.9H16.6c-3.2,0-5.8-2.6-5.8-5.8c0,0,0,0,0,0V5.9c0-3.2,2.6-5.8,5.8-5.9c0,0,0,0,0,0
			h19.8c3.2,0,5.8,2.6,5.8,5.8c0,0,0,0,0,0V32C42.2,35.2,39.6,37.8,36.4,37.9C36.4,37.9,36.4,37.9,36.4,37.9L36.4,37.9z M16.6,4.5
			c-0.7,0-1.3,0.6-1.3,1.3c0,0,0,0,0,0V32c0,0.7,0.6,1.3,1.3,1.3c0,0,0,0,0,0h19.8c0.7,0,1.3-0.6,1.3-1.3c0,0,0,0,0,0V5.9
			c0-0.7-0.6-1.3-1.3-1.3c0,0,0,0,0,0L16.6,4.5L16.6,4.5z"/>
		<path id="Path_966" class="st2" d="M31.4,19.8c0,2.6-2.1,4.8-4.8,4.8c-2.6,0-4.8-2.1-4.8-4.8H31.4z"/>
		<path id="Path_967" class="st2" d="M22.4,15.3c0,1-0.8,1.8-1.8,1.8c-1,0-1.8-0.8-1.8-1.8c0-1,0.8-1.8,1.8-1.8
			C21.6,13.5,22.4,14.3,22.4,15.3L22.4,15.3z"/>
		<path id="Path_968" class="st2" d="M34.1,15.3c0,1-0.8,1.8-1.8,1.8s-1.8-0.8-1.8-1.8c0-1,0.8-1.8,1.8-1.8
			C33.3,13.5,34.1,14.3,34.1,15.3L34.1,15.3z"/>
	</g>
</g>
</svg>
